<svg width="24" height="27" viewBox="0 0 24 27" fill="none" xmlns="http://www.w3.org/2000/svg">
<g id="Bold / Map &#38; Location / Map Point Wave">
<path id="Vector" d="M12 24.383C17.5228 24.383 22 22.1726 22 19.4458C22 18.0561 20.837 16.8005 18.9654 15.9033C17.8233 18.2028 16.0817 20.1848 13.8695 21.222C12.6804 21.7795 11.3196 21.7795 10.1305 21.222C7.91828 20.1848 6.17666 18.2028 5.03458 15.9033C3.16295 16.8005 2 18.0561 2 19.4458C2 22.1726 6.47715 24.383 12 24.383Z" fill="#32B7A1"/>
<path id="Vector_2" fill-rule="evenodd" clip-rule="evenodd" d="M5 9.58701C5 5.63952 8.13401 2.43945 12 2.43945C15.866 2.43945 19 5.63952 19 9.58701C19 13.5036 16.7658 18.0738 13.2801 19.7082C12.4675 20.0892 11.5325 20.0892 10.7199 19.7082C7.23416 18.0738 5 13.5036 5 9.58701ZM12 12.3138C13.1046 12.3138 14 11.3314 14 10.1195C14 8.90765 13.1046 7.92522 12 7.92522C10.8954 7.92522 10 8.90765 10 10.1195C10 11.3314 10.8954 12.3138 12 12.3138Z" fill="#32B7A1"/>
</g>
</svg>
