<svg width="30" height="31" viewBox="0 0 30 31" fill="none" xmlns="http://www.w3.org/2000/svg">
<g id="Social Icons" clip-path="url(#clip0_219_1179)">
<path id="Vector" d="M27.7793 0H2.21484C0.990234 0 0 0.999024 0 2.23418V28.7598C0 29.9949 0.990234 31 2.21484 31H27.7793C29.0039 31 30 29.9949 30 28.7658V2.23418C30 0.999024 29.0039 0 27.7793 0ZM8.90039 26.4166H4.44727V11.6189H8.90039V26.4166ZM6.67383 9.60273C5.24414 9.60273 4.08984 8.40996 4.08984 6.93867C4.08984 5.46738 5.24414 4.27461 6.67383 4.27461C8.09766 4.27461 9.25195 5.46738 9.25195 6.93867C9.25195 8.40391 8.09766 9.60273 6.67383 9.60273ZM25.5645 26.4166H21.1172V19.2236C21.1172 17.5102 21.0879 15.3002 18.8027 15.3002C16.4883 15.3002 16.1367 17.1711 16.1367 19.1025V26.4166H11.6953V11.6189H15.9609V13.6412H16.0195C16.6113 12.4787 18.0645 11.2496 20.2266 11.2496C24.7324 11.2496 25.5645 14.3133 25.5645 18.2973V26.4166Z" fill="#32B7A1"/>
</g>
<defs>
<clipPath id="clip0_219_1179">
<rect width="30" height="31" fill="white"/>
</clipPath>
</defs>
</svg>
