<svg width="31" height="31" viewBox="0 0 31 31" fill="none" xmlns="http://www.w3.org/2000/svg">
<g id="Social Icons" clip-path="url(#clip0_219_1181)">
<path id="Vector" d="M15.5 0C6.93867 0 0 6.93867 0 15.5C0 22.0693 4.08691 27.676 9.85098 29.9344C9.71777 28.7053 9.59062 26.8283 9.90547 25.4902C10.19 24.2793 11.7219 17.7887 11.7219 17.7887C11.7219 17.7887 11.2557 16.8623 11.2557 15.4879C11.2557 13.3324 12.5029 11.7219 14.059 11.7219C15.3789 11.7219 16.0207 12.7148 16.0207 13.9076C16.0207 15.2396 15.173 17.2256 14.7371 19.0662C14.3738 20.6102 15.5121 21.8695 17.0318 21.8695C19.7867 21.8695 21.9059 18.9633 21.9059 14.7734C21.9059 11.0619 19.2418 8.46445 15.4334 8.46445C11.0256 8.46445 8.43418 11.7703 8.43418 15.1912C8.43418 16.5232 8.94883 17.9521 9.59062 18.7271C9.71777 18.8785 9.73594 19.0178 9.69961 19.1691C9.58457 19.6596 9.31816 20.7131 9.26973 20.925C9.20312 21.2096 9.0457 21.2701 8.74902 21.1309C6.81152 20.2287 5.60059 17.4012 5.60059 15.1246C5.60059 10.2324 9.15469 5.7459 15.8391 5.7459C21.2156 5.7459 25.3934 9.57852 25.3934 14.7008C25.3934 20.041 22.027 24.3398 17.3527 24.3398C15.7846 24.3398 14.3072 23.5225 13.7986 22.5598C13.7986 22.5598 13.0236 25.5205 12.8359 26.2471C12.4848 27.5912 11.5402 29.2805 10.9105 30.3098C12.3637 30.7578 13.9016 31 15.5 31C24.0613 31 31 24.0613 31 15.5C31 6.93867 24.0613 0 15.5 0Z" fill="#32B7A1"/>
</g>
<defs>
<clipPath id="clip0_219_1181">
<rect width="31" height="31" fill="white"/>
</clipPath>
</defs>
</svg>
