<svg width="30" height="31" viewBox="0 0 30 31" fill="none" xmlns="http://www.w3.org/2000/svg">
<g id="Social Icons">
<path id="Vector" d="M29.7012 9.3002C29.7012 9.3002 29.4082 7.16289 28.5059 6.22441C27.3633 4.98926 26.0859 4.9832 25.5 4.91055C21.3047 4.5957 15.0059 4.5957 15.0059 4.5957H14.9941C14.9941 4.5957 8.69531 4.5957 4.5 4.91055C3.91406 4.9832 2.63672 4.98926 1.49414 6.22441C0.591797 7.16289 0.304688 9.3002 0.304688 9.3002C0.304688 9.3002 0 11.8129 0 14.3195V16.6687C0 19.1754 0.298828 21.6881 0.298828 21.6881C0.298828 21.6881 0.591797 23.8254 1.48828 24.7639C2.63086 25.999 4.13086 25.9566 4.79883 26.0898C7.20117 26.326 15 26.3986 15 26.3986C15 26.3986 21.3047 26.3865 25.5 26.0777C26.0859 26.0051 27.3633 25.999 28.5059 24.7639C29.4082 23.8254 29.7012 21.6881 29.7012 21.6881C29.7012 21.6881 30 19.1814 30 16.6687V14.3195C30 11.8129 29.7012 9.3002 29.7012 9.3002ZM11.9004 19.5205V10.8078L20.0039 15.1793L11.9004 19.5205Z" fill="#32B7A1"/>
</g>
</svg>
